<?xml version="1.0" encoding="UTF-8" standalone="no"?>
<!-- Uploaded to: SVG Repo, www.svgrepo.com, Transformed by: SVG Repo Mixer Tools -->

<svg
   height="800px"
   width="800px"
   version="1.1"
   id="_x32_"
   viewBox="0 0 512 512"
   xml:space="preserve"
   fill="#000000"
   sodipodi:docname="gear-svgrepo-com.svg"
   inkscape:version="1.4 (86a8ad7, 2024-10-11)"
   xmlns:inkscape="http://www.inkscape.org/namespaces/inkscape"
   xmlns:sodipodi="http://sodipodi.sourceforge.net/DTD/sodipodi-0.dtd"
   xmlns="http://www.w3.org/2000/svg"
   xmlns:svg="http://www.w3.org/2000/svg"><defs
   id="defs1">  <style
   type="text/css"
   id="style1"> .st0{fill:#000000;} </style>  </defs><sodipodi:namedview
   id="namedview1"
   pagecolor="#ffffff"
   bordercolor="#000000"
   borderopacity="0.25"
   inkscape:showpageshadow="2"
   inkscape:pageopacity="0.0"
   inkscape:pagecheckerboard="0"
   inkscape:deskcolor="#d1d1d1"
   inkscape:zoom="0.56214989"
   inkscape:cx="301.521"
   inkscape:cy="185.00404"
   inkscape:window-width="2560"
   inkscape:window-height="1566"
   inkscape:window-x="-11"
   inkscape:window-y="-11"
   inkscape:window-maximized="1"
   inkscape:current-layer="layer1" />







<g
   inkscape:groupmode="layer"
   id="layer1"
   inkscape:label="Layer 1"><path
     class="st0"
     d="m 497.569,215.166 -55.345,-13.064 c -4.032,-13.946 -9.495,-27.27 -16.376,-39.732 l 29.85,-48.303 c 4.57,-7.397 3.452,-16.946 -2.688,-23.086 l -31.99,-31.99 c -6.129,-6.129 -15.678,-7.248 -23.076,-2.678 L 349.652,86.164 C 337.19,79.282 323.867,73.82 309.92,69.787 L 296.856,14.419 C 294.856,5.978 287.306,0 278.63,0 h -45.237 c -8.678,0 -16.227,5.978 -18.227,14.419 l -13.064,55.368 c -13.946,4.032 -27.27,9.484 -39.732,16.377 L 114.067,56.292 C 106.68,51.743 97.121,52.851 90.981,58.991 L 58.99,90.97 c -6.13,6.14 -7.248,15.709 -2.689,23.087 l 29.862,48.313 c -6.882,12.462 -12.344,25.786 -16.367,39.721 L 14.418,215.156 C 5.978,217.165 0,224.704 0,233.392 v 45.226 c 0,8.678 5.978,16.237 14.419,18.226 l 55.378,13.065 c 4.032,13.946 9.485,27.259 16.367,39.71 l -29.872,48.324 c -4.549,7.398 -3.441,16.957 2.699,23.098 L 90.97,453.02 c 6.14,6.14 15.709,7.257 23.087,2.688 l 48.323,-29.872 c 12.463,6.882 25.786,12.344 39.722,16.366 l 13.064,55.366 c 2,8.463 9.549,14.431 18.227,14.431 h 45.237 c 8.677,0 16.226,-5.968 18.226,-14.431 l 13.064,-55.366 c 13.937,-4.021 27.259,-9.484 39.712,-16.366 l 48.312,29.861 c 7.398,4.57 16.947,3.452 23.087,-2.688 l 31.989,-31.99 c 6.13,-6.129 7.248,-15.688 2.678,-23.087 L 425.837,349.63 c 6.893,-12.452 12.345,-25.774 16.377,-39.721 L 497.58,296.844 C 506.043,294.843 512,287.305 512,278.618 V 233.38 c 0,-8.666 -5.968,-16.215 -14.431,-18.214 z M 256.00395,322.45534 c -36.68383,0 -66.44623,-29.76382 -66.44623,-66.46034 0,-36.69652 29.76381,-66.46034 66.44623,-66.46034 36.69652,0 66.46033,29.76382 66.46033,66.46034 0,36.69652 -29.76381,66.46034 -66.46033,66.46034 z"
     id="path1"
     inkscape:label="path1"
     sodipodi:nodetypes="ccccssccccssccccccccccsscccccsccccssccccccccccsscsssss" /></g></svg>
